<?xml version="1.0" encoding="UTF-8" standalone="no"?>
<svg
   xmlns:dc="http://purl.org/dc/elements/1.1/"
   xmlns:cc="http://creativecommons.org/ns#"
   xmlns:rdf="http://www.w3.org/1999/02/22-rdf-syntax-ns#"
   xmlns:svg="http://www.w3.org/2000/svg"
   xmlns="http://www.w3.org/2000/svg"
   xmlns:sodipodi="http://sodipodi.sourceforge.net/DTD/sodipodi-0.dtd"
   xmlns:inkscape="http://www.inkscape.org/namespaces/inkscape"
   sodipodi:docname="map.svg"
   inkscape:version="1.0 (4035a4fb49, 2020-05-01)"
   inkscape:export-ydpi="48.914864"
   inkscape:export-xdpi="48.914864"
   inkscape:export-filename="C:\Users\jkoehler\Downloads\user\html\regionalRecipes\west.png"
   id="svg8"
   version="1.1"
   viewBox="0 0 207.80733 140.20277"
   height="140.20277mm"
   width="207.80733mm">
  <defs
     id="defs2" />
  <sodipodi:namedview
     inkscape:window-maximized="0"
     inkscape:window-y="168"
     inkscape:window-x="2114"
     inkscape:window-height="1101"
     inkscape:window-width="1707"
     fit-margin-bottom="0"
     fit-margin-right="0"
     fit-margin-left="0"
     fit-margin-top="0"
     showgrid="false"
     inkscape:document-rotation="0"
     inkscape:current-layer="layer1"
     inkscape:document-units="mm"
     inkscape:cy="90.184437"
     inkscape:cx="348.80282"
     inkscape:zoom="0.98994949"
     inkscape:pageshadow="2"
     inkscape:pageopacity="0.0"
     borderopacity="1.0"
     bordercolor="#666666"
     pagecolor="#ffffff"
     id="base" />
  <metadata
     id="metadata5">
    <rdf:RDF>
      <cc:Work
         rdf:about="">
        <dc:format>image/svg+xml</dc:format>
        <dc:type
           rdf:resource="http://purl.org/dc/dcmitype/StillImage" />
        <dc:title></dc:title>
      </cc:Work>
    </rdf:RDF>
  </metadata>
  <g
     transform="translate(-1.6600329,-57.494655)"
     id="layer1"
     inkscape:groupmode="layer"
     inkscape:label="Layer 1">
    <path
       id="path833"
       d="m 110.63885,57.964007 c -3.66878,1.289381 -6.67372,3.847324 -9.67577,6.230469 -2.718064,2.167546 -5.625025,4.308545 -9.058972,5.149008 -2.637829,0.616527 -5.488755,-0.595347 -7.130484,-2.69393 -1.388126,-1.355808 -3.161668,-2.565451 -5.177735,-2.539063 -3.079462,-0.0057 -5.940652,1.363846 -8.549817,2.87359 -5.426806,3.116288 -10.957182,6.146391 -15.809558,10.134223 -2.161252,1.940971 -4.15062,4.101177 -6.599947,5.695095 -0.642337,0.42762 -1.307254,0.821538 -1.993803,1.174046 0.206942,-0.918113 -0.617519,-1.666226 -1.385965,-1.990817 -2.032339,-0.992515 -4.434028,-0.766987 -6.505587,-0.01743 -3.792514,1.200739 -6.583062,4.985128 -6.617749,8.962558 -0.534915,4.736947 -1.062644,9.515334 -2.464452,14.089654 -0.96389,2.9178 -2.593526,5.68139 -5.004596,7.63179 -3.033069,2.59976 -6.783968,4.09425 -10.352666,5.78672 -2.989675,1.44762 -5.9130566,3.26392 -7.9549985,5.94001 -2.756001,3.47231 -4.1368906,7.89177 -4.3220112,12.28835 -0.5519828,6.1961 0.3693451,12.62791 3.2808185,18.17377 1.3301875,2.54094 2.9927916,5.00725 5.3440502,6.7078 0.899149,0.53682 2.22031,0.48631 2.894822,-0.38738 1.442745,-1.47684 2.026742,-3.67895 3.811846,-4.83929 2.261317,-1.54042 5.157177,-1.85708 7.809691,-1.43753 1.620926,0.25755 3.146113,0.88368 4.714381,1.33659 4.104827,1.0649 8.403275,0.99394 12.596166,0.61458 5.313937,-0.54144 10.499466,-1.88563 15.641337,-3.28157 1.985451,-0.48904 4.109323,-0.97353 6.124288,-0.36296 1.396133,0.52157 2.129025,1.94624 2.656144,3.24669 0.723564,1.88409 1.079515,3.90147 2.00088,5.71101 1.373801,2.89631 3.616903,5.52091 6.626417,6.77251 1.558005,0.63837 3.297536,0.71257 4.936836,0.38203 2.992354,-0.49422 5.914736,-1.71561 8.995091,-1.45195 5.179102,0.45479 9.673212,4.72206 10.608993,9.80158 0.27967,1.69942 0.47294,3.41279 0.79876,5.10515 0.37744,1.99103 0.897,4.00799 1.97258,5.74548 0.48276,0.59058 1.3806,0.69781 2.01996,0.30667 0.76905,-0.3276 1.61483,-0.59483 2.4536,-0.39098 2.23344,0.25945 4.20025,1.43477 6.25618,2.2521 4.44345,1.94081 8.65048,4.36261 12.94511,6.60114 0.26948,0.19523 0.60717,0.21139 0.89123,0.0344 0.77926,-0.41905 1.04182,-1.57092 0.48098,-2.26761 -1.00648,-2.34058 -3.21363,-3.79615 -4.73218,-5.76371 -0.40176,-0.46851 -0.83617,-1.22479 -0.3572,-1.78739 0.65887,-0.78095 1.79569,-0.7117 2.70347,-0.52768 3.03667,0.46603 5.66333,2.4607 8.78025,2.55865 1.52482,0.10508 2.99791,-0.76756 3.80751,-2.03372 0.76602,-0.95315 1.7136,-2.02004 3.03327,-2.0507 1.92305,-0.10547 3.67736,0.83107 5.51576,1.23163 2.22524,0.60143 4.58848,0.71806 6.84888,0.24304 2.61548,-0.34881 5.34881,-0.96477 7.41282,-2.71094 1.9446,-1.63825 3.35348,-3.78556 5.0788,-5.63362 2.23229,-2.62156 4.43195,-5.40694 5.52986,-8.71706 0.85766,-3.04967 0.29272,-6.23273 0.29948,-9.34287 -0.0322,-2.32541 0.12023,-4.77042 1.26866,-6.84672 0.96038,-1.38993 3.07784,-1.72498 4.44129,-0.73864 1.10771,0.75002 1.67027,2.01708 2.54446,2.99135 1.94492,2.50023 4.03604,5.05769 6.92398,6.50258 3.74087,1.89066 8.46498,1.65685 11.98177,-0.63429 5.69609,-3.18409 9.78692,-9.23665 10.28684,-15.78049 0.20652,-3.91157 -1.44499,-7.73672 -3.9484,-10.67982 -2.18642,-2.81486 -4.5232,-5.66003 -5.60025,-9.11786 -1.00865,-3.55006 -0.60986,-7.27834 -0.35345,-10.90213 0.29671,-3.79926 0.55569,-7.72245 -0.58371,-11.41662 -0.94143,-3.00368 -3.43213,-5.612216 -6.57085,-6.258306 -2.21286,-0.444352 -4.42725,0.243029 -6.63965,0.334101 -2.04665,0.144079 -4.27097,-0.06264 -5.9509,-1.354548 -2.17084,-1.604849 -3.39325,-4.080894 -4.8556,-6.278229 -1.14525,-1.737484 -2.48145,-3.500601 -4.41294,-4.404916 -1.78524,-0.79144 -4.11626,-0.500503 -5.4245,1.028674 -0.97542,1.132463 -1.36651,2.61376 -2.08519,3.900466 -0.8864,1.783534 -2.12146,3.498523 -3.93205,4.429391 -5.29232,3.002322 -12.21594,2.66418 -17.2775,-0.669362 -2.01079,-1.295123 -3.67634,-3.090184 -4.87394,-5.156709 -1.0871,-1.803496 -2.0597,-3.673351 -3.15744,-5.470756 -2.62008,-4.508907 -5.50971,-8.916786 -9.18697,-12.643354 -3.07554,-3.387369 -4.79991,-7.82624 -8.22373,-10.922877 -1.51878,-1.369658 -3.4327,-2.530184 -5.5467,-2.463102 z"
       style="fill:none;stroke:#000000;stroke-width:0.264583px;stroke-linecap:butt;stroke-linejoin:miter;stroke-opacity:1" />
    <path
       sodipodi:nodetypes="cccccccccccccc"
       d="m 46.642763,83.987443 c 0.884389,2.996009 3.029879,4.798472 4.687997,7.336415 2.151423,2.400058 4.683327,4.531832 6.13305,7.484344 2.500704,2.496658 4.990065,4.961108 6.377557,8.284678 2.23518,2.81644 5.695711,-3.18997 7.673093,1.06341 1.911867,2.52763 4.417738,4.29613 7.38642,5.39879 2.579749,1.60702 5.540485,2.96758 7.292215,5.16894 0.744073,3.00545 -1.420705,5.75929 -0.934117,8.76354 -1.403469,2.56738 -2.126898,5.77541 -2.405425,8.8199 -1.968472,1.94639 -4.089065,3.48323 -5.641759,5.69177 -0.820128,3.18845 -0.226465,6.81972 -1.150662,10.01663 -1.41682,3.03963 -2.327372,6.33509 -1.589333,9.68185 1.498392,1.89956 2.459353,2.2882 3.007008,4.5895 0.215939,0.77959 1.449554,2.40581 1.649675,3.14497"
       style="fill:none;stroke:#000000;stroke-width:0.264583px;stroke-linecap:butt;stroke-linejoin:miter;stroke-opacity:1"
       id="path835" />
    <path
       sodipodi:nodetypes="ccccccccccccc"
       d="m 85.526248,117.97444 c 3.956659,0.59044 8.104758,2.47308 11.22774,4.90137 2.664968,1.79059 5.220642,3.89184 8.242212,5.04013 5.90377,0.80287 11.84418,-0.60804 17.77763,-0.23239 2.58194,0.0569 5.39658,-0.0857 7.5229,-1.73532 3.28577,-0.74729 4.87033,-4.33592 7.90165,-5.23504 2.8197,0.31421 6.58607,0.6171 8.41784,2.9246 0.93255,3.07322 -1.87012,6.82312 0.79361,9.40512 1.83922,2.07585 4.71689,0.81498 4.22995,-1.99367 -0.033,-3.5798 0.38669,-7.47413 -1.21996,-10.77961 -1.90416,-2.82984 -6.13384,-4.04912 -5.82421,-8.18822 -0.34955,-5.38698 -1.02751,-9.58425 -0.30669,-14.951895 l 0.4016,-0.968564"
       style="fill:none;stroke:#000000;stroke-width:0.264583px;stroke-linecap:butt;stroke-linejoin:miter;stroke-opacity:1"
       id="path837" />
    <path
       sodipodi:nodetypes="cccccccccc"
       d="m 149.48356,134.07041 c -1.47492,0.99954 -1.0192,2.95815 -1.89348,4.45072 -0.7481,1.7358 -2.21879,3.11822 -2.46927,5.10534 -0.98961,5.0325 -0.80078,10.36952 0.9659,15.21286 1.67592,2.39119 2.75312,5.12689 3.80441,7.83232 1.38271,1.41926 0.63272,3.87533 0.31167,5.54692 -0.76761,0.98449 -0.73181,2.60135 -0.88798,3.87063 -0.0619,1.4774 0.082,2.95484 0.29508,4.41537 1.1453,1.82398 0.84388,2.86753 0.38976,4.86717 -0.16819,0.86683 0.50366,1.38104 0.20425,1.89965"
       style="fill:none;stroke:#000000;stroke-width:0.264583px;stroke-linecap:butt;stroke-linejoin:miter;stroke-opacity:1"
       id="path839" />
    <path
       d="m 111.11673,57.762883 c -1.14274,0.08154 -2.18121,0.632457 -3.16453,1.178689 -2.03152,1.181563 -3.91051,2.602019 -5.78237,4.017317 -1.90742,1.471097 -3.81116,2.957841 -5.8677,4.218406 -0.204007,0.122118 -0.514731,0.306956 -0.717785,0.420129 -1.503278,0.84687 -3.163443,1.544698 -4.916683,1.543648 -1.254051,-7.94e-4 -2.546901,-0.226462 -3.619791,-0.909608 -0.916678,-0.548516 -1.666198,-1.317625 -2.463896,-2.016911 -1.108887,-0.913289 -2.318199,-1.761152 -3.709664,-2.175732 -0.964256,-0.284883 -1.984145,-0.147897 -2.96231,-0.01976 -2.226855,0.355648 -4.281614,1.353696 -6.25888,2.394858 -2.010185,1.085638 -3.980219,2.244002 -5.951627,3.398088 -3.860832,2.283495 -7.678481,4.687808 -11.078723,7.629726 -1.294509,1.112994 -2.525398,2.298706 -3.850759,3.376142 -0.966555,0.806865 -1.960319,1.583195 -3.01969,2.265484 -0.344051,0.240932 -0.709784,0.461095 -1.040331,0.714962 -0.07639,0.166791 -0.269288,0.30906 -0.193651,0.507847 0.0667,0.328684 0.248632,0.626046 0.361749,0.942115 0.397341,0.942605 1.01636,1.768544 1.59622,2.604058 1.630096,2.254102 3.408278,4.40146 5.320922,6.421496 1.099172,1.231961 2.154272,2.509644 3.060787,3.891494 0.80999,1.136822 1.71173,2.209709 2.716043,3.179959 1.295363,1.36677 2.443629,2.87645 3.406074,4.49529 0.383347,0.68293 0.710653,1.42825 1.321882,1.94561 0.286195,0.27804 0.703575,0.33005 1.081247,0.26075 1.213024,-0.16414 2.317519,-0.72187 3.484686,-1.0543 0.457203,-0.1297 1.002687,-0.20977 1.400699,0.11529 0.699024,0.55112 1.180074,1.31768 1.767099,1.97691 1.075212,1.28193 2.372596,2.37117 3.813657,3.22032 1.10776,0.67441 2.319673,1.21816 3.442396,1.82638 1.627068,0.88405 3.260521,1.83732 4.78886,2.91298 0.488971,0.36242 0.971106,0.74399 1.535719,0.98478 0.706998,0.34979 1.469106,0.56294 2.23748,0.72817 0.595932,0.15024 1.142675,0.3126 1.723896,0.51793 1.231849,0.43367 2.423686,1.02044 3.541704,1.6548 3.173778,1.79274 6.084332,4.00312 9.20009,5.88895 1.13193,0.68034 2.35529,1.27841 3.68632,1.41418 1.27027,0.13267 2.55046,0.0956 3.82566,0.10318 4.30118,-0.0319 8.60122,-0.16936 12.89743,-0.37455 1.26465,-0.0746 2.53413,-0.11655 3.79097,-0.28292 1.55553,-0.29359 3.01127,-0.96278 4.39756,-1.7078 1.54307,-0.84059 2.99017,-1.85645 4.29493,-3.03403 0.74659,-0.61211 1.46933,-1.29948 2.37763,-1.66502 0.87542,-0.3182 1.82009,-0.12336 2.7159,-0.0179 1.66776,0.24219 3.38114,0.57253 4.83033,1.47924 0.39991,0.2666 0.80794,0.54433 1.12096,0.91265 0.21454,0.3583 0.14942,0.8017 0.17095,1.2019 0.0117,1.37336 -0.14429,2.74169 -0.3451,4.09815 -0.0703,0.71135 -0.14801,1.43784 -0.0269,2.14757 0.23595,0.89421 0.80855,1.66287 1.44901,2.31303 0.3989,0.40227 0.89086,0.71075 1.44194,0.85339 0.51064,0.17536 1.08874,0.075 1.51818,-0.24935 0.53107,-0.39706 1.12091,-0.8335 1.29998,-1.50815 0.21352,-0.82062 0.1798,-1.67884 0.22695,-2.51932 0.0496,-2.14455 -0.10007,-4.29258 -0.398,-6.41606 -0.12881,-0.79849 -0.23894,-1.61152 -0.52441,-2.37216 -0.43866,-0.97217 -1.21198,-1.73493 -1.93234,-2.50136 -1.11038,-1.15548 -2.32383,-2.21564 -3.34331,-3.45589 -0.39167,-0.46991 -0.65048,-1.0404 -0.74249,-1.64541 -0.23487,-1.2945 -0.33232,-2.6192 -0.4297,-3.91472 -0.11163,-1.60558 -0.18014,-3.23955 -0.22669,-4.86404 -0.0387,-1.57698 -0.0589,-3.19514 -0.0218,-4.78788 0.0297,-0.960419 0.0472,-1.956771 0.20523,-2.923607 0.0672,-0.336542 0.27654,-0.6889 0.10398,-1.030356 -0.12186,-0.300098 -0.453,-0.424479 -0.75458,-0.433832 -0.70243,-0.271229 -1.32242,-0.714719 -1.94689,-1.127966 -1.07467,-0.753594 -2.13641,-1.543315 -3.05406,-2.486231 -0.79353,-0.907328 -1.47284,-1.91011 -2.10468,-2.934709 -2.08469,-3.579068 -4.13487,-7.18349 -6.43527,-10.630495 -1.40624,-2.111703 -2.97262,-4.114633 -4.67301,-5.997249 -1.31671,-1.503794 -2.51138,-3.110008 -3.67816,-4.731441 -1.0596,-1.487921 -2.03546,-3.035694 -3.16165,-4.475861 -1.22251,-1.574659 -2.54572,-3.117757 -4.20828,-4.243919 -0.98357,-0.654666 -2.10965,-1.146805 -3.29599,-1.247902 -0.0844,-0.0062 -0.16896,-2.64e-4 -0.25344,5.29e-4 z"
       style="fill:#bd9f9d;fill-opacity:1;stroke:none;stroke-width:0.529167;stroke-linejoin:round;stroke-miterlimit:4;stroke-dasharray:none;stroke-opacity:1"
       id="path849" />
    <path
       d="m 167.97786,85.227871 c -0.94908,0.01135 -1.88088,0.391501 -2.56555,1.04912 -1.01449,0.962488 -1.67405,2.220254 -2.31333,3.446185 -0.63813,1.2432 -1.33398,2.465398 -2.18241,3.578429 -0.75392,0.913487 -1.78544,1.545769 -2.82466,2.086358 -0.95724,0.488445 -2.01285,0.880129 -3.02541,1.141026 -1.47713,0.363406 -3.00928,0.434454 -4.52487,0.427728 -1.40223,-0.01556 -2.81053,-0.13408 -4.17395,-0.47517 -0.56972,-0.09901 -1.17888,-0.263697 -1.74447,-0.06263 -0.41629,0.150482 -0.53785,0.617355 -0.59424,1.00974 -0.18641,1.312619 -0.18648,2.643013 -0.20586,3.966183 -0.0124,3.62174 0.17136,7.24416 0.54017,10.84689 0.13821,1.19721 0.35701,2.44808 1.10217,3.43323 0.86956,1.15049 2.06887,1.98282 3.09318,2.98302 0.50956,0.50137 1.0442,0.99057 1.45558,1.57879 0.65342,1.05451 0.87615,2.30289 1.07063,3.50931 0.23181,1.61202 0.31419,3.24063 0.3731,4.86674 0.0254,1.0018 0.0686,2.05602 -0.0331,3.07415 -0.067,0.61001 -0.19994,1.30713 -0.75239,1.66923 -0.53803,0.3554 -1.19945,0.51454 -1.66473,0.98217 -0.66753,0.6442 -0.88125,1.5856 -1.12889,2.44553 -0.23039,1.0009 -0.70788,1.92097 -1.17114,2.83001 -0.59933,1.09522 -1.25885,2.17276 -1.62836,3.3743 -0.59427,1.85276 -0.60406,3.82166 -0.6344,5.74793 0.006,2.32547 -0.0394,4.68351 0.49731,6.96209 0.57728,2.41362 1.76984,4.6113 2.8412,6.8304 0.7798,1.61225 1.60485,3.20611 2.27473,4.86851 0.25272,0.62495 0.41533,1.30133 0.32839,1.97834 -0.0226,0.29436 -0.0635,0.67341 -0.11943,1.00044 -0.15579,0.96008 -0.41045,1.90103 -0.72659,2.81997 -0.48969,1.74764 -0.54673,3.59419 -0.35747,5.39151 0.10773,1.05573 0.35894,2.0911 0.70029,3.09453 0.20413,0.63397 0.33952,1.31122 0.19555,1.97378 -0.17351,0.8933 -0.35112,1.80843 -0.24666,2.72109 0.0871,0.40579 0.17774,0.88917 0.55598,1.127 0.33646,0.14877 0.71218,0.025 1.06262,10e-4 1.79776,-0.26105 3.58058,-0.6262 5.34222,-1.06864 1.11239,-0.29026 2.19816,-0.71616 3.17861,-1.32064 1.44104,-0.91568 2.56785,-2.22358 3.69381,-3.48641 1.79231,-2.07116 3.57493,-4.15668 5.18777,-6.37261 0.85877,-1.18225 1.62387,-2.43463 2.22856,-3.76642 0.49129,-1.00099 0.81838,-2.08219 0.93117,-3.19286 0.19118,-1.83519 0.16627,-3.68378 0.19008,-5.52645 0.0104,-1.52439 0.0214,-3.0874 0.0862,-4.58661 0.0682,-1.1289 0.10808,-2.28247 0.4697,-3.36408 0.2838,-0.85622 0.99346,-1.49507 1.75917,-1.92767 0.59605,-0.34366 1.34864,-0.37273 1.96864,-0.074 1.00508,0.46527 1.77011,1.30412 2.48018,2.13037 1.07774,1.34396 2.15608,2.69121 3.35307,3.93256 1.69624,1.7667 3.62978,3.39641 5.9438,4.2783 1.5064,0.58169 3.13542,0.83978 4.74781,0.7381 1.78015,-0.10635 3.58352,-0.48275 5.13872,-1.38799 1.64282,-0.92634 3.18018,-2.03578 4.61662,-3.25612 1.26693,-1.05587 2.32406,-2.33931 3.2501,-3.69807 1.82416,-2.70911 3.07875,-5.84324 3.38879,-9.10765 0.15921,-1.70681 0.0157,-3.4487 -0.50596,-5.08574 -0.40759,-1.45229 -1.12297,-2.79598 -1.95946,-4.0439 -1.94489,-2.93971 -4.32765,-5.59357 -5.95784,-8.73697 -0.76561,-1.47579 -1.25554,-3.09214 -1.42361,-4.74679 -0.1766,-1.61397 -0.13737,-3.25282 -0.074,-4.85699 0.16502,-3.58534 0.321,-7.17688 0.19011,-10.76597 -0.0623,-1.30334 -0.12797,-2.62855 -0.55169,-3.87445 -0.71329,-2.30928 -2.11674,-4.462109 -4.15424,-5.806819 -0.76105,-0.506056 -1.60753,-0.927645 -2.52952,-1.016127 -1.43418,-0.153951 -2.88001,-0.08194 -4.31898,-0.0572 -1.64305,0.03569 -3.27595,0.12923 -4.91847,0.124465 -0.69234,0.0021 -1.39277,-0.102169 -2.01927,-0.410078 -0.92101,-0.389583 -1.77661,-0.945959 -2.45353,-1.687137 -1.01288,-1.089792 -1.841,-2.35237 -2.66558,-3.570179 -1.13776,-1.703041 -2.29004,-3.425216 -3.77567,-4.849865 -0.96829,-0.929031 -2.18396,-1.680025 -3.54517,-1.806805 -0.25382,-0.02811 -0.50988,-0.03572 -0.76508,-0.02949 z"
       style="fill:#bcbe9d;fill-opacity:1;stroke-width:0.52916667;stroke-linejoin:round;stroke-miterlimit:4;stroke-dasharray:none;stroke:none;stroke-opacity:1"
       id="path853" />
    <path
       d="m 86.783848,117.9928 c -0.437978,0.006 -0.797877,0.38435 -0.823206,0.8139 -0.04693,0.60164 0.08165,1.20424 0.0088,1.80628 -0.07775,1.12545 -0.338148,2.22576 -0.604641,3.31838 -0.207574,0.95365 -0.38983,1.919 -0.421389,2.89643 -0.104548,0.86814 -0.409948,1.69439 -0.751348,2.49387 -0.641644,1.72244 -1.075952,3.51704 -1.400561,5.3242 -0.09637,0.46919 -0.08995,0.93624 -0.342334,1.36238 -0.464254,0.74969 -1.127175,1.34745 -1.737889,1.97483 -1.209424,1.1918 -2.442009,2.37252 -3.487089,3.71525 -0.261012,0.30767 -0.36403,0.70254 -0.412954,1.09456 -0.324758,2.14297 -0.376121,4.31362 -0.591635,6.46778 -0.122248,1.17371 -0.30426,2.35469 -0.751718,3.45404 -0.673235,1.90527 -1.308555,3.85735 -1.447094,5.88616 -0.03025,0.89704 -0.05744,1.82131 0.215786,2.68719 0.342863,1.03293 1.155483,1.79543 1.811841,2.62995 0.449506,0.59561 0.853564,1.24083 1.063342,1.96271 0.429201,1.11289 0.984273,2.18956 1.724077,3.12895 0.2807,0.35063 0.675987,0.74252 1.168385,0.6466 1.869424,-0.30301 3.689376,-0.84639 5.55095,-1.19075 1.167876,-0.22793 2.355278,-0.44366 3.550266,-0.34453 0.363326,0.0236 0.740834,0.0698 1.071854,0.12734 0.45262,0.0786 0.851466,0.1737 1.290476,0.30366 0.765096,0.23003 1.505135,0.54106 2.208649,0.91933 0.113821,0.0634 0.30744,0.16985 0.448921,0.25633 2.312943,1.37298 4.169505,3.53397 5.074248,6.07653 0.794819,2.23022 1.010225,4.60485 1.485985,6.91151 0.34232,1.62944 0.70392,3.27597 1.40927,4.79324 0.2697,0.54187 0.59247,1.08858 1.08125,1.4599 0.51535,0.33844 1.15333,0.13533 1.70542,0.0188 0.85353,-0.22621 1.74651,-0.36103 2.62703,-0.22369 0.29861,0.0402 0.61933,0.10802 0.87929,0.17406 0.58299,0.14745 1.15217,0.34376 1.71652,0.55023 0.14567,0.0573 0.37595,0.14362 0.55397,0.21239 2.09559,0.81576 4.1006,1.83978 6.12096,2.82203 2.83195,1.40594 5.66283,2.81689 8.441,4.32712 0.41289,0.21093 0.78881,0.48286 1.18695,0.71755 0.38211,0.22654 0.88619,0.14798 1.19692,-0.16336 0.30614,-0.31059 0.65828,-0.61435 0.81588,-1.03243 0.17424,-0.56662 -0.18176,-1.10082 -0.40228,-1.59864 -0.43687,-0.83143 -1.05466,-1.54962 -1.63994,-2.27846 -0.97963,-1.21475 -2.14101,-2.27562 -3.05567,-3.54331 -0.20705,-0.32249 -0.47404,-0.66318 -0.46611,-1.06383 0.10229,-0.30078 0.43757,-0.43256 0.6992,-0.56767 0.59862,-0.25762 1.27177,-0.18363 1.89547,-0.0731 0.10492,0.0183 0.30721,0.0644 0.44869,0.0969 2.03041,0.48203 3.916,1.42199 5.94047,1.92524 1.2286,0.30219 2.51967,0.55921 3.78179,0.31672 0.77515,-0.12957 1.3855,-0.66542 1.94277,-1.18094 0.79825,-0.73833 1.38603,-1.71066 2.34146,-2.27172 0.82177,-0.51011 1.8383,-0.46106 2.75236,-0.28762 0.30704,0.0563 0.62799,0.1283 0.90135,0.19904 0.76305,0.19147 1.49262,0.43311 2.26277,0.6325 1.22329,0.31437 2.45565,0.63923 3.71938,0.73164 0.38445,0.0365 0.81177,-0.21964 0.8287,-0.63353 0.0286,-0.29577 -0.12804,-0.57475 -0.0839,-0.87345 -1.8e-4,-0.86926 0.26156,-1.70833 0.32386,-2.57081 0.085,-1.3178 -0.62703,-2.49614 -0.85291,-3.76336 -0.16496,-0.91705 -0.11251,-1.86713 -0.0832,-2.77505 0.015,-0.43063 0.0354,-0.82973 0.0633,-1.27003 0.0793,-0.97667 0.1396,-1.97037 0.43615,-2.91028 0.39925,-0.98081 0.63033,-2.02992 0.71725,-3.08422 0.0975,-1.27807 -0.43785,-2.48331 -0.94343,-3.62407 -0.82681,-1.83771 -1.7846,-3.6123 -2.65657,-5.4282 -0.55184,-1.17524 -1.06712,-2.36957 -1.49941,-3.59434 -0.10929,-0.31107 -0.22397,-0.68747 -0.30097,-1.03389 -0.14751,-0.63013 -0.26138,-1.31487 -0.34189,-1.92665 -0.3131,-2.49149 -0.37493,-5.01841 -0.14657,-7.51991 0.0702,-0.67661 0.1703,-1.40183 0.26233,-2.0423 0.13111,-0.92766 0.35868,-1.8524 0.81494,-2.67787 0.50738,-0.95631 1.12402,-1.85357 1.55646,-2.84943 0.36796,-0.78206 0.66855,-1.5953 0.87591,-2.43473 0.0875,-0.3029 0.18423,-0.60703 0.27827,-0.8803 0.1026,-0.37656 0.3292,-0.70379 0.4349,-1.07747 0.11372,-0.39877 -0.21174,-0.82464 -0.62373,-0.83199 -0.20822,-0.0365 -0.35938,-0.22844 -0.52604,-0.34953 -0.72502,-0.63578 -1.36288,-1.45422 -1.50483,-2.43407 -0.2156,-1.33126 0.18025,-2.65038 0.27859,-3.97288 0.0799,-0.92889 0.17018,-1.87104 0.0427,-2.79931 -0.0824,-0.60116 -0.53326,-1.05206 -1.0024,-1.39252 -1.00506,-0.76303 -2.22181,-1.17805 -3.42304,-1.51915 -1.20322,-0.31056 -2.43775,-0.54246 -3.68318,-0.56182 -0.87756,-0.0138 -1.71351,0.34511 -2.41472,0.85159 -1.27477,0.89324 -2.34691,2.04336 -3.64863,2.90116 -1.55831,1.05482 -3.23588,1.95616 -5.02614,2.54821 -0.69629,0.23839 -1.42565,0.35803 -2.15933,0.39569 -2.70403,0.18746 -5.45511,0.28044 -8.19123,0.37105 -3.10474,0.0885 -6.2278,0.18035 -9.34101,0.14474 -0.64046,-0.0134 -1.3375,-0.0282 -1.94077,-0.0898 -1.03418,-0.0851 -2.02696,-0.44047 -2.92839,-0.94478 -0.25417,-0.13745 -0.49714,-0.2793 -0.76092,-0.43691 -0.40727,-0.24657 -0.85991,-0.53444 -1.27771,-0.80822 -2.437595,-1.59119 -4.801678,-3.29613 -7.293551,-4.80336 -1.181229,-0.72244 -2.450137,-1.28937 -3.756022,-1.74521 -0.920829,-0.31788 -1.824725,-0.69825 -2.774127,-0.92488 -0.159724,-0.0338 -0.323273,-0.0529 -0.486656,-0.0435 z"
       style="fill:#9d9fbe;fill-opacity:1;stroke-width:0.52916667;stroke-linejoin:round;stroke-miterlimit:4;stroke-dasharray:none;stroke:none;stroke-opacity:1"
       id="path851" />
    <path
       d="m 41.873413,81.150083 c -2.675848,0.08112 -5.295183,1.249297 -7.146107,3.182887 -0.963753,0.988214 -1.76144,2.160583 -2.183128,3.483454 -0.608309,1.865331 -0.772858,3.833397 -1.00743,5.770632 -0.389776,3.206699 -0.833276,6.436364 -1.646608,9.587194 -0.646562,2.46636 -1.575967,4.91238 -3.160199,6.93811 -1.040559,1.33514 -2.304581,2.4881 -3.688971,3.45848 -0.144794,0.0957 -0.356469,0.24537 -0.529173,0.35893 -1.390014,0.91491 -2.889795,1.70617 -4.358383,2.44504 -2.260555,1.11078 -4.557219,2.16034 -6.714964,3.46644 -2.0371494,1.21742 -3.9632648,2.69505 -5.3899232,4.61209 -1.1659341,1.55048 -2.0282482,3.30485 -2.7724671,5.08928 -0.7290789,1.7513 -1.0937838,3.62777 -1.3030402,5.50599 -0.2717144,2.26644 -0.3910505,4.55488 -0.2590365,6.83562 0.2466875,4.42837 1.2773088,8.84629 3.273826,12.82054 1.2829733,2.52762 2.9782201,4.88778 5.182715,6.69127 0.58688,0.46776 1.325018,0.90314 2.10523,0.74882 0.83494,-0.16868 1.423169,-0.85397 1.932363,-1.48617 0.793601,-1.02426 1.443215,-2.1592 2.330574,-3.1105 0.847016,-0.95066 1.927699,-1.71823 3.165343,-2.05821 1.457297,-0.40901 2.990428,-0.40986 4.491159,-0.34852 1.103719,0.0505 2.230453,0.29503 3.266697,0.57978 1.996937,0.5782 4.017126,1.14255 6.089925,1.39884 2.552888,0.32231 5.136814,0.23023 7.696467,0.0436 5.002427,-0.38681 9.897226,-1.56317 14.747764,-2.79251 0.967417,-0.2385 1.98116,-0.47686 2.930072,-0.66892 1.4205,-0.26883 2.871957,-0.54966 4.322733,-0.39275 0.845971,0.0881 1.674988,0.4661 2.218561,1.13364 0.782275,0.93816 1.191651,2.11344 1.59208,3.24996 0.418814,1.2943 0.828905,2.59532 1.395163,3.83491 1.055151,2.36549 2.530047,4.61538 4.618403,6.19147 1.341387,1.01033 2.931644,1.70442 4.595744,1.94804 0.428728,0.0482 0.97296,0.0921 1.26679,-0.29228 0.236281,-0.28941 0.09647,-0.67838 -0.06466,-0.96743 -0.412753,-0.8099 -0.893802,-1.58671 -1.223782,-2.43703 -0.183365,-0.47037 -0.330425,-0.95895 -0.610815,-1.38484 -0.486645,-0.83119 -1.112732,-1.56662 -1.757913,-2.27728 -0.314285,-0.34747 -0.582858,-0.76124 -0.615759,-1.24141 -0.09258,-1.01768 -0.132607,-2.04513 -0.04864,-3.06497 0.176462,-2.06623 0.886273,-4.03251 1.583786,-5.96916 0.526388,-1.68279 0.620609,-3.45811 0.749154,-5.2052 0.101142,-1.29661 0.120129,-2.60607 0.3677,-3.88626 0.136273,-0.73105 0.515998,-1.39295 1.018362,-1.93412 0.923563,-1.00497 1.93485,-1.92475 2.901564,-2.88751 0.561298,-0.55542 1.140211,-1.09769 1.690531,-1.66132 0.203931,-0.29215 0.18982,-0.65875 0.266687,-0.99429 0.223245,-1.32014 0.448236,-2.64278 0.818459,-3.93144 0.198332,-0.77474 0.476512,-1.52447 0.738294,-2.27883 0.385617,-1.18316 0.663114,-2.40156 0.813538,-3.63711 0.178948,-1.19819 0.447635,-2.38013 0.743514,-3.5541 0.219344,-1.00064 0.437761,-2.09067 0.03352,-3.07506 -0.375674,-0.88119 -1.118484,-1.53533 -1.85393,-2.11784 -1.607331,-1.22703 -3.351647,-2.26185 -5.115711,-3.24497 -1.017151,-0.57747 -2.081667,-1.06519 -3.105359,-1.62984 -1.801103,-1.00996 -3.381997,-2.40707 -4.594664,-4.07929 -0.454007,-0.59138 -0.924989,-1.28361 -1.691214,-1.47737 -0.77864,-0.1806 -1.547876,0.15712 -2.267434,0.4162 -0.715396,0.27413 -1.433632,0.59706 -2.214031,0.68992 -0.455657,0.0686 -0.976423,-0.046 -1.246285,-0.45043 -0.314659,-0.47247 -0.558041,-0.98984 -0.865259,-1.468 -1.126675,-1.87237 -2.491814,-3.59255 -3.995944,-5.17492 -0.940972,-1.041115 -1.860357,-2.11213 -2.651379,-3.271526 -0.845942,-1.224452 -1.822783,-2.353043 -2.81854,-3.456929 -2.051542,-2.184411 -3.976037,-4.49739 -5.645806,-6.988495 -0.218583,-0.329317 -0.431808,-0.666293 -0.621189,-0.986536 -0.19636,-0.336191 -0.426752,-0.743929 -0.586629,-1.136031 -0.07849,-0.197713 -0.170635,-0.411152 -0.09291,-0.623668 0.09301,-0.739159 -0.424148,-1.38937 -1.001088,-1.784879 -1.079463,-0.738786 -2.409476,-1.038593 -3.703429,-1.058053 -0.131685,-0.0027 -0.263268,0.0024 -0.394914,0.0049 z"
       style="fill:#78e393;fill-opacity:1;stroke-width:0.52916667;stroke-linejoin:round;stroke-miterlimit:4;stroke-dasharray:none;stroke:#000000;stroke-opacity:1"
       id="path847" />
  </g>
</svg>
